<svg width="92" height="92" viewBox="0 0 92 92" fill="none" xmlns="http://www.w3.org/2000/svg">
<circle cx="46" cy="46" r="46" fill="url(#paint0_linear_0_1)"/>
<path d="M25.7711 25.771C24.1909 27.3512 24.1909 29.9132 25.7711 31.4933L40.2774 45.9996L25.7711 60.5063C24.1909 62.0863 24.1909 64.6484 25.7711 66.2285C27.3512 67.8085 29.9132 67.8085 31.4933 66.2285L45.9997 51.7219L60.5063 66.2285C62.0863 67.8085 64.6484 67.8085 66.2285 66.2285C67.8085 64.6484 67.8085 62.0863 66.2285 60.5063L51.7219 45.9996L66.2285 31.4934C67.8085 29.9132 67.8085 27.3513 66.2285 25.7711C64.648 24.1909 62.0863 24.1909 60.5063 25.7711L45.9997 40.2774L31.4933 25.771C29.9132 24.1909 27.3512 24.1909 25.7711 25.771Z" fill="white"/>
<defs>
<linearGradient id="paint0_linear_0_1" x1="46" y1="0" x2="46" y2="92" gradientUnits="userSpaceOnUse">
<stop stop-color="#CA174D"/>
<stop offset="1" stop-color="#EF7F1A"/>
</linearGradient>
</defs>
</svg>
